<svg xmlns="http://www.w3.org/2000/svg" viewBox="0 0 607 536" width="607" height="536" font-family="-apple-system, BlinkMacSystemFont, 'Segoe UI', Roboto, 'Helvetica Neue', Arial, sans-serif" font-size="13" fill="#1c1e21">
<line x1="85" y1="54" x2="85" y2="482" stroke="#9aa0a6" stroke-width="1" stroke-dasharray="5 4" />
<line x1="279" y1="54" x2="279" y2="482" stroke="#9aa0a6" stroke-width="1" stroke-dasharray="5 4" />
<line x1="547" y1="54" x2="547" y2="482" stroke="#9aa0a6" stroke-width="1" stroke-dasharray="5 4" />
<rect x="20" y="20" width="130" height="34" rx="4" ry="4" fill="#e6e9ef" stroke="#6c7079" />
<text x="85" y="42" text-anchor="middle" font-size="13" font-weight="bold" fill="#1c1e21">OrderConsumer</text>
<rect x="20" y="482" width="130" height="34" rx="4" ry="4" fill="#e6e9ef" stroke="#6c7079" />
<text x="85" y="504" text-anchor="middle" font-size="13" font-weight="bold" fill="#1c1e21">OrderConsumer</text>
<rect x="217" y="20" width="124" height="34" rx="4" ry="4" fill="#e6e9ef" stroke="#6c7079" />
<text x="279" y="42" text-anchor="middle" font-size="13" font-weight="bold" fill="#1c1e21">OrderProducer</text>
<rect x="217" y="482" width="124" height="34" rx="4" ry="4" fill="#e6e9ef" stroke="#6c7079" />
<text x="279" y="504" text-anchor="middle" font-size="13" font-weight="bold" fill="#1c1e21">OrderProducer</text>
<path d="M 507 30 A 40.0 10 0 0 1 587 30 L 587 44 A 40.0 10 0 0 1 507 44 Z" fill="#dde8ff" stroke="#3b6fb6" />
<path d="M 507 30 A 40.0 10 0 0 0 587 30" fill="none" stroke="#3b6fb6" />
<text x="547" y="42" text-anchor="middle" font-size="13" font-weight="bold" fill="#1c1e21">Kafka</text>
<path d="M 507 492 A 40.0 10 0 0 1 587 492 L 587 506 A 40.0 10 0 0 1 507 506 Z" fill="#dde8ff" stroke="#3b6fb6" />
<path d="M 507 492 A 40.0 10 0 0 0 587 492" fill="none" stroke="#3b6fb6" />
<text x="547" y="504" text-anchor="middle" font-size="13" font-weight="bold" fill="#1c1e21">Kafka</text>
<rect x="20" y="78" width="567" height="26" rx="4" ry="4" fill="#f4f5f7" stroke="#6c7079" />
<text x="303" y="96" text-anchor="middle" font-size="13" font-weight="bold" fill="#1c1e21">orders.audit</text>
<line x1="279" y1="131" x2="538" y2="131" stroke="#2e3338" stroke-width="1" />
<polygon points="538,131 529,126 529,136" fill="#2e3338" />
<text x="413" y="125" text-anchor="middle" font-size="12" font-weight="normal" fill="#1c1e21">send(publishAudit())</text>
<line x1="547" y1="169" x2="94" y2="169" stroke="#2e3338" stroke-width="1" />
<polygon points="94,169 103,164 103,174" fill="#2e3338" />
<text x="316" y="163" text-anchor="middle" font-size="12" font-weight="normal" fill="#1c1e21">onAudit()</text>
<rect x="20" y="196" width="567" height="26" rx="4" ry="4" fill="#f4f5f7" stroke="#6c7079" />
<text x="303" y="214" text-anchor="middle" font-size="13" font-weight="bold" fill="#1c1e21">orders.dlq</text>
<line x1="547" y1="249" x2="94" y2="249" stroke="#2e3338" stroke-width="1" />
<polygon points="94,249 103,244 103,254" fill="#2e3338" />
<text x="316" y="243" text-anchor="middle" font-size="12" font-weight="normal" fill="#1c1e21">onAudit()</text>
<rect x="20" y="276" width="567" height="26" rx="4" ry="4" fill="#f4f5f7" stroke="#6c7079" />
<text x="303" y="294" text-anchor="middle" font-size="13" font-weight="bold" fill="#1c1e21">orders.notifications</text>
<line x1="85" y1="329" x2="538" y2="329" stroke="#2e3338" stroke-width="1" />
<polygon points="538,329 529,324 529,334" fill="#2e3338" />
<text x="316" y="323" text-anchor="middle" font-size="12" font-weight="normal" fill="#1c1e21">send(onAudit())</text>
<rect x="20" y="356" width="567" height="26" rx="4" ry="4" fill="#f4f5f7" stroke="#6c7079" />
<text x="303" y="374" text-anchor="middle" font-size="13" font-weight="bold" fill="#1c1e21">orders.v1</text>
<line x1="279" y1="409" x2="538" y2="409" stroke="#2e3338" stroke-width="1" />
<polygon points="538,409 529,404 529,414" fill="#2e3338" />
<text x="413" y="403" text-anchor="middle" font-size="12" font-weight="normal" fill="#1c1e21">send(publishOrder())</text>
<line x1="547" y1="447" x2="94" y2="447" stroke="#2e3338" stroke-width="1" />
<polygon points="94,447 103,442 103,452" fill="#2e3338" />
<text x="316" y="441" text-anchor="middle" font-size="12" font-weight="normal" fill="#1c1e21">onOrder()</text>
</svg>