<svg xmlns="http://www.w3.org/2000/svg" viewBox="0 0 833 1304" width="833" height="1304" font-family="-apple-system, BlinkMacSystemFont, 'Segoe UI', Roboto, 'Helvetica Neue', Arial, sans-serif" font-size="13" fill="#1c1e21">
<line x1="60" y1="54" x2="60" y2="1250" stroke="#9aa0a6" stroke-width="1" stroke-dasharray="5 4" />
<line x1="407" y1="54" x2="407" y2="1250" stroke="#9aa0a6" stroke-width="1" stroke-dasharray="5 4" />
<line x1="748" y1="54" x2="748" y2="1250" stroke="#9aa0a6" stroke-width="1" stroke-dasharray="5 4" />
<circle cx="60" cy="32" r="6" fill="#e6e9ef" stroke="#6c7079" />
<line x1="60" y1="38" x2="60" y2="52" stroke="#6c7079" stroke-width="1" />
<line x1="53" y1="44" x2="67" y2="44" stroke="#6c7079" stroke-width="1" />
<line x1="60" y1="52" x2="54" y2="62" stroke="#6c7079" stroke-width="1" />
<line x1="60" y1="52" x2="66" y2="62" stroke="#6c7079" stroke-width="1" />
<text x="60" y="68" text-anchor="middle" font-size="13" font-weight="bold" fill="#1c1e21">Client</text>
<circle cx="60" cy="1262" r="6" fill="#e6e9ef" stroke="#6c7079" />
<line x1="60" y1="1268" x2="60" y2="1282" stroke="#6c7079" stroke-width="1" />
<line x1="53" y1="1274" x2="67" y2="1274" stroke="#6c7079" stroke-width="1" />
<line x1="60" y1="1282" x2="54" y2="1292" stroke="#6c7079" stroke-width="1" />
<line x1="60" y1="1282" x2="66" y2="1292" stroke="#6c7079" stroke-width="1" />
<text x="60" y="1298" text-anchor="middle" font-size="13" font-weight="bold" fill="#1c1e21">Client</text>
<rect x="334" y="20" width="146" height="34" rx="4" ry="4" fill="#e6e9ef" stroke="#6c7079" />
<text x="407" y="42" text-anchor="middle" font-size="13" font-weight="bold" fill="#1c1e21">ArtifactController</text>
<rect x="334" y="1250" width="146" height="34" rx="4" ry="4" fill="#e6e9ef" stroke="#6c7079" />
<text x="407" y="1272" text-anchor="middle" font-size="13" font-weight="bold" fill="#1c1e21">ArtifactController</text>
<rect x="683" y="20" width="130" height="34" rx="4" ry="4" fill="#e6e9ef" stroke="#6c7079" />
<text x="748" y="42" text-anchor="middle" font-size="13" font-weight="bold" fill="#1c1e21">ArtifactService</text>
<rect x="683" y="1250" width="130" height="34" rx="4" ry="4" fill="#e6e9ef" stroke="#6c7079" />
<text x="748" y="1272" text-anchor="middle" font-size="13" font-weight="bold" fill="#1c1e21">ArtifactService</text>
<rect x="20" y="78" width="793" height="26" rx="4" ry="4" fill="#f4f5f7" stroke="#6c7079" />
<text x="416" y="96" text-anchor="middle" font-size="13" font-weight="bold" fill="#1c1e21">POST /api/v2/artifact/new</text>
<line x1="60" y1="131" x2="398" y2="131" stroke="#2e3338" stroke-width="1" />
<polygon points="398,131 389,126 389,136" fill="#2e3338" />
<text x="233" y="125" text-anchor="middle" font-size="12" font-weight="normal" fill="#1c1e21">addNewArtifact(request)</text>
<line x1="407" y1="169" x2="739" y2="169" stroke="#2e3338" stroke-width="1" />
<polygon points="739,169 730,164 730,174" fill="#2e3338" />
<text x="577" y="163" text-anchor="middle" font-size="12" font-weight="normal" fill="#1c1e21">addNewArtifact()</text>
<line x1="748" y1="207" x2="416" y2="207" stroke="#5f6368" stroke-width="1" stroke-dasharray="5 4" />
<polygon points="416,207 425,202 425,212" fill="#5f6368" />
<text x="577" y="201" text-anchor="middle" font-size="12" font-weight="normal" fill="#1c1e21"></text>
<line x1="407" y1="245" x2="69" y2="245" stroke="#5f6368" stroke-width="1" stroke-dasharray="5 4" />
<polygon points="69,245 78,240 78,250" fill="#5f6368" />
<text x="233" y="239" text-anchor="middle" font-size="12" font-weight="normal" fill="#1c1e21">void</text>
<rect x="20" y="272" width="793" height="26" rx="4" ry="4" fill="#f4f5f7" stroke="#6c7079" />
<text x="416" y="290" text-anchor="middle" font-size="13" font-weight="bold" fill="#1c1e21">POST /api/v2/artifact/{count}/generate</text>
<line x1="60" y1="325" x2="398" y2="325" stroke="#2e3338" stroke-width="1" />
<polygon points="398,325 389,320 389,330" fill="#2e3338" />
<text x="233" y="319" text-anchor="middle" font-size="12" font-weight="normal" fill="#1c1e21">generateSomeArtifacts(count)</text>
<line x1="407" y1="363" x2="739" y2="363" stroke="#2e3338" stroke-width="1" />
<polygon points="739,363 730,358 730,368" fill="#2e3338" />
<text x="577" y="357" text-anchor="middle" font-size="12" font-weight="normal" fill="#1c1e21">generateSomeArtifacts()</text>
<line x1="748" y1="401" x2="416" y2="401" stroke="#5f6368" stroke-width="1" stroke-dasharray="5 4" />
<polygon points="416,401 425,396 425,406" fill="#5f6368" />
<text x="577" y="395" text-anchor="middle" font-size="12" font-weight="normal" fill="#1c1e21"></text>
<line x1="407" y1="439" x2="69" y2="439" stroke="#5f6368" stroke-width="1" stroke-dasharray="5 4" />
<polygon points="69,439 78,434 78,444" fill="#5f6368" />
<text x="233" y="433" text-anchor="middle" font-size="12" font-weight="normal" fill="#1c1e21">void</text>
<rect x="20" y="466" width="793" height="26" rx="4" ry="4" fill="#f4f5f7" stroke="#6c7079" />
<text x="416" y="484" text-anchor="middle" font-size="13" font-weight="bold" fill="#1c1e21">GET /api/v2/artifact</text>
<line x1="60" y1="519" x2="398" y2="519" stroke="#2e3338" stroke-width="1" />
<polygon points="398,519 389,514 389,524" fill="#2e3338" />
<text x="233" y="513" text-anchor="middle" font-size="12" font-weight="normal" fill="#1c1e21">getByJsonField(key, value)</text>
<line x1="407" y1="557" x2="739" y2="557" stroke="#2e3338" stroke-width="1" />
<polygon points="739,557 730,552 730,562" fill="#2e3338" />
<text x="577" y="551" text-anchor="middle" font-size="12" font-weight="normal" fill="#1c1e21">getArtByJsonField()</text>
<line x1="748" y1="595" x2="416" y2="595" stroke="#5f6368" stroke-width="1" stroke-dasharray="5 4" />
<polygon points="416,595 425,590 425,600" fill="#5f6368" />
<text x="577" y="589" text-anchor="middle" font-size="12" font-weight="normal" fill="#1c1e21"></text>
<line x1="407" y1="633" x2="69" y2="633" stroke="#5f6368" stroke-width="1" stroke-dasharray="5 4" />
<polygon points="69,633 78,628 78,638" fill="#5f6368" />
<text x="233" y="627" text-anchor="middle" font-size="12" font-weight="normal" fill="#1c1e21">ArtifactDto</text>
<rect x="20" y="660" width="793" height="26" rx="4" ry="4" fill="#f4f5f7" stroke="#6c7079" />
<text x="416" y="678" text-anchor="middle" font-size="13" font-weight="bold" fill="#1c1e21">POST /api/v2/artifact/json</text>
<line x1="60" y1="713" x2="398" y2="713" stroke="#2e3338" stroke-width="1" />
<polygon points="398,713 389,708 389,718" fill="#2e3338" />
<text x="233" y="707" text-anchor="middle" font-size="12" font-weight="normal" fill="#1c1e21">getByNativeJsonFields(request)</text>
<line x1="407" y1="751" x2="739" y2="751" stroke="#2e3338" stroke-width="1" />
<polygon points="739,751 730,746 730,756" fill="#2e3338" />
<text x="577" y="745" text-anchor="middle" font-size="12" font-weight="normal" fill="#1c1e21">getArtByNativeJsonFields()</text>
<line x1="748" y1="789" x2="416" y2="789" stroke="#5f6368" stroke-width="1" stroke-dasharray="5 4" />
<polygon points="416,789 425,784 425,794" fill="#5f6368" />
<text x="577" y="783" text-anchor="middle" font-size="12" font-weight="normal" fill="#1c1e21"></text>
<line x1="407" y1="827" x2="69" y2="827" stroke="#5f6368" stroke-width="1" stroke-dasharray="5 4" />
<polygon points="69,827 78,822 78,832" fill="#5f6368" />
<text x="233" y="821" text-anchor="middle" font-size="12" font-weight="normal" fill="#1c1e21">ArtifactDto</text>
<rect x="20" y="854" width="793" height="26" rx="4" ry="4" fill="#f4f5f7" stroke="#6c7079" />
<text x="416" y="872" text-anchor="middle" font-size="13" font-weight="bold" fill="#1c1e21">POST /api/v2/artifact/customFields</text>
<line x1="60" y1="907" x2="398" y2="907" stroke="#2e3338" stroke-width="1" />
<polygon points="398,907 389,902 389,912" fill="#2e3338" />
<text x="233" y="901" text-anchor="middle" font-size="12" font-weight="normal" fill="#1c1e21">getCustomRequestById(request)</text>
<line x1="407" y1="945" x2="739" y2="945" stroke="#2e3338" stroke-width="1" />
<polygon points="739,945 730,940 730,950" fill="#2e3338" />
<text x="577" y="939" text-anchor="middle" font-size="12" font-weight="normal" fill="#1c1e21">getCustomById()</text>
<line x1="748" y1="983" x2="416" y2="983" stroke="#5f6368" stroke-width="1" stroke-dasharray="5 4" />
<polygon points="416,983 425,978 425,988" fill="#5f6368" />
<text x="577" y="977" text-anchor="middle" font-size="12" font-weight="normal" fill="#1c1e21"></text>
<line x1="407" y1="1021" x2="69" y2="1021" stroke="#5f6368" stroke-width="1" stroke-dasharray="5 4" />
<polygon points="69,1021 78,1016 78,1026" fill="#5f6368" />
<text x="233" y="1015" text-anchor="middle" font-size="12" font-weight="normal" fill="#1c1e21">ArtifactDto</text>
<rect x="20" y="1048" width="793" height="26" rx="4" ry="4" fill="#f4f5f7" stroke="#6c7079" />
<text x="416" y="1066" text-anchor="middle" font-size="13" font-weight="bold" fill="#1c1e21">GET /api/v2/artifact/getById</text>
<line x1="60" y1="1101" x2="398" y2="1101" stroke="#2e3338" stroke-width="1" />
<polygon points="398,1101 389,1096 389,1106" fill="#2e3338" />
<text x="233" y="1095" text-anchor="middle" font-size="12" font-weight="normal" fill="#1c1e21">getById(id)</text>
<line x1="407" y1="1139" x2="739" y2="1139" stroke="#2e3338" stroke-width="1" />
<polygon points="739,1139 730,1134 730,1144" fill="#2e3338" />
<text x="577" y="1133" text-anchor="middle" font-size="12" font-weight="normal" fill="#1c1e21">getById()</text>
<line x1="748" y1="1177" x2="416" y2="1177" stroke="#5f6368" stroke-width="1" stroke-dasharray="5 4" />
<polygon points="416,1177 425,1172 425,1182" fill="#5f6368" />
<text x="577" y="1171" text-anchor="middle" font-size="12" font-weight="normal" fill="#1c1e21"></text>
<line x1="407" y1="1215" x2="69" y2="1215" stroke="#5f6368" stroke-width="1" stroke-dasharray="5 4" />
<polygon points="69,1215 78,1210 78,1220" fill="#5f6368" />
<text x="233" y="1209" text-anchor="middle" font-size="12" font-weight="normal" fill="#1c1e21">ArtifactDto</text>
</svg>