<svg xmlns="http://www.w3.org/2000/svg" viewBox="0 0 647 334" width="647" height="334" font-family="-apple-system, BlinkMacSystemFont, 'Segoe UI', Roboto, 'Helvetica Neue', Arial, sans-serif" font-size="13" fill="#1c1e21">
<line x1="60" y1="54" x2="60" y2="280" stroke="#9aa0a6" stroke-width="1" stroke-dasharray="5 4" />
<line x1="258" y1="54" x2="258" y2="280" stroke="#9aa0a6" stroke-width="1" stroke-dasharray="5 4" />
<line x1="556" y1="54" x2="556" y2="280" stroke="#9aa0a6" stroke-width="1" stroke-dasharray="5 4" />
<circle cx="60" cy="32" r="6" fill="#e6e9ef" stroke="#6c7079" />
<line x1="60" y1="38" x2="60" y2="52" stroke="#6c7079" stroke-width="1" />
<line x1="53" y1="44" x2="67" y2="44" stroke="#6c7079" stroke-width="1" />
<line x1="60" y1="52" x2="54" y2="62" stroke="#6c7079" stroke-width="1" />
<line x1="60" y1="52" x2="66" y2="62" stroke="#6c7079" stroke-width="1" />
<text x="60" y="68" text-anchor="middle" font-size="13" font-weight="bold" fill="#1c1e21">Client</text>
<circle cx="60" cy="292" r="6" fill="#e6e9ef" stroke="#6c7079" />
<line x1="60" y1="298" x2="60" y2="312" stroke="#6c7079" stroke-width="1" />
<line x1="53" y1="304" x2="67" y2="304" stroke="#6c7079" stroke-width="1" />
<line x1="60" y1="312" x2="54" y2="322" stroke="#6c7079" stroke-width="1" />
<line x1="60" y1="312" x2="66" y2="322" stroke="#6c7079" stroke-width="1" />
<text x="60" y="328" text-anchor="middle" font-size="13" font-weight="bold" fill="#1c1e21">Client</text>
<rect x="203" y="20" width="110" height="34" rx="4" ry="4" fill="#e6e9ef" stroke="#6c7079" />
<text x="258" y="42" text-anchor="middle" font-size="13" font-weight="bold" fill="#1c1e21">ZkController</text>
<rect x="203" y="280" width="110" height="34" rx="4" ry="4" fill="#e6e9ef" stroke="#6c7079" />
<text x="258" y="302" text-anchor="middle" font-size="13" font-weight="bold" fill="#1c1e21">ZkController</text>
<rect x="485" y="20" width="142" height="34" rx="4" ry="4" fill="#e6e9ef" stroke="#6c7079" />
<text x="556" y="42" text-anchor="middle" font-size="13" font-weight="bold" fill="#1c1e21">ZkConfigWatcher</text>
<rect x="485" y="280" width="142" height="34" rx="4" ry="4" fill="#e6e9ef" stroke="#6c7079" />
<text x="556" y="302" text-anchor="middle" font-size="13" font-weight="bold" fill="#1c1e21">ZkConfigWatcher</text>
<rect x="20" y="78" width="607" height="26" rx="4" ry="4" fill="#f4f5f7" stroke="#6c7079" />
<text x="323" y="96" text-anchor="middle" font-size="13" font-weight="bold" fill="#1c1e21">GET /api/v2/zk</text>
<line x1="60" y1="131" x2="249" y2="131" stroke="#2e3338" stroke-width="1" />
<polygon points="249,131 240,126 240,136" fill="#2e3338" />
<text x="159" y="125" text-anchor="middle" font-size="12" font-weight="normal" fill="#1c1e21">getConfig()</text>
<line x1="258" y1="169" x2="547" y2="169" stroke="#2e3338" stroke-width="1" />
<polygon points="547,169 538,164 538,174" fill="#2e3338" />
<text x="407" y="163" text-anchor="middle" font-size="12" font-weight="normal" fill="#1c1e21">getAppParamsConfig()</text>
<line x1="556" y1="207" x2="267" y2="207" stroke="#5f6368" stroke-width="1" stroke-dasharray="5 4" />
<polygon points="267,207 276,202 276,212" fill="#5f6368" />
<text x="407" y="201" text-anchor="middle" font-size="12" font-weight="normal" fill="#1c1e21"></text>
<line x1="258" y1="245" x2="69" y2="245" stroke="#5f6368" stroke-width="1" stroke-dasharray="5 4" />
<polygon points="69,245 78,240 78,250" fill="#5f6368" />
<text x="159" y="239" text-anchor="middle" font-size="12" font-weight="normal" fill="#1c1e21">String</text>
</svg>