<svg xmlns="http://www.w3.org/2000/svg" viewBox="0 0 888 528" width="888" height="528" font-family="-apple-system, BlinkMacSystemFont, 'Segoe UI', Roboto, 'Helvetica Neue', Arial, sans-serif" font-size="13" fill="#1c1e21">
<line x1="60" y1="54" x2="60" y2="474" stroke="#9aa0a6" stroke-width="1" stroke-dasharray="5 4" />
<line x1="408" y1="54" x2="408" y2="474" stroke="#9aa0a6" stroke-width="1" stroke-dasharray="5 4" />
<line x1="768" y1="54" x2="768" y2="474" stroke="#9aa0a6" stroke-width="1" stroke-dasharray="5 4" />
<circle cx="60" cy="32" r="6" fill="#e6e9ef" stroke="#6c7079" />
<line x1="60" y1="38" x2="60" y2="52" stroke="#6c7079" stroke-width="1" />
<line x1="53" y1="44" x2="67" y2="44" stroke="#6c7079" stroke-width="1" />
<line x1="60" y1="52" x2="54" y2="62" stroke="#6c7079" stroke-width="1" />
<line x1="60" y1="52" x2="66" y2="62" stroke="#6c7079" stroke-width="1" />
<text x="60" y="68" text-anchor="middle" font-size="13" font-weight="bold" fill="#1c1e21">Client</text>
<circle cx="60" cy="486" r="6" fill="#e6e9ef" stroke="#6c7079" />
<line x1="60" y1="492" x2="60" y2="506" stroke="#6c7079" stroke-width="1" />
<line x1="53" y1="498" x2="67" y2="498" stroke="#6c7079" stroke-width="1" />
<line x1="60" y1="506" x2="54" y2="516" stroke="#6c7079" stroke-width="1" />
<line x1="60" y1="506" x2="66" y2="516" stroke="#6c7079" stroke-width="1" />
<text x="60" y="522" text-anchor="middle" font-size="13" font-weight="bold" fill="#1c1e21">Client</text>
<rect x="300" y="20" width="216" height="34" rx="4" ry="4" fill="#e6e9ef" stroke="#6c7079" />
<text x="408" y="42" text-anchor="middle" font-size="13" font-weight="bold" fill="#1c1e21">DynamicDocumentController</text>
<rect x="300" y="474" width="216" height="34" rx="4" ry="4" fill="#e6e9ef" stroke="#6c7079" />
<text x="408" y="496" text-anchor="middle" font-size="13" font-weight="bold" fill="#1c1e21">DynamicDocumentController</text>
<rect x="668" y="20" width="200" height="34" rx="4" ry="4" fill="#e6e9ef" stroke="#6c7079" />
<text x="768" y="42" text-anchor="middle" font-size="13" font-weight="bold" fill="#1c1e21">DynamicDocumentService</text>
<rect x="668" y="474" width="200" height="34" rx="4" ry="4" fill="#e6e9ef" stroke="#6c7079" />
<text x="768" y="496" text-anchor="middle" font-size="13" font-weight="bold" fill="#1c1e21">DynamicDocumentService</text>
<rect x="20" y="78" width="848" height="26" rx="4" ry="4" fill="#f4f5f7" stroke="#6c7079" />
<text x="444" y="96" text-anchor="middle" font-size="13" font-weight="bold" fill="#1c1e21">POST /api/v2/dd</text>
<line x1="60" y1="131" x2="399" y2="131" stroke="#2e3338" stroke-width="1" />
<polygon points="399,131 390,126 390,136" fill="#2e3338" />
<text x="234" y="125" text-anchor="middle" font-size="12" font-weight="normal" fill="#1c1e21">addNewDocument(request)</text>
<line x1="408" y1="169" x2="759" y2="169" stroke="#2e3338" stroke-width="1" />
<polygon points="759,169 750,164 750,174" fill="#2e3338" />
<text x="588" y="163" text-anchor="middle" font-size="12" font-weight="normal" fill="#1c1e21">addNewDocument()</text>
<line x1="768" y1="207" x2="417" y2="207" stroke="#5f6368" stroke-width="1" stroke-dasharray="5 4" />
<polygon points="417,207 426,202 426,212" fill="#5f6368" />
<text x="588" y="201" text-anchor="middle" font-size="12" font-weight="normal" fill="#1c1e21"></text>
<line x1="408" y1="245" x2="69" y2="245" stroke="#5f6368" stroke-width="1" stroke-dasharray="5 4" />
<polygon points="69,245 78,240 78,250" fill="#5f6368" />
<text x="234" y="239" text-anchor="middle" font-size="12" font-weight="normal" fill="#1c1e21">void</text>
<rect x="20" y="272" width="848" height="26" rx="4" ry="4" fill="#f4f5f7" stroke="#6c7079" />
<text x="444" y="290" text-anchor="middle" font-size="13" font-weight="bold" fill="#1c1e21">ANY /api/v2/dd/new</text>
<line x1="60" y1="325" x2="399" y2="325" stroke="#2e3338" stroke-width="1" />
<polygon points="399,325 390,320 390,330" fill="#2e3338" />
<text x="234" y="319" text-anchor="middle" font-size="12" font-weight="normal" fill="#1c1e21">addNewDocument(request)</text>
<line x1="408" y1="363" x2="759" y2="363" stroke="#2e3338" stroke-width="1" />
<polygon points="759,363 750,358 750,368" fill="#2e3338" />
<text x="588" y="357" text-anchor="middle" font-size="12" font-weight="normal" fill="#1c1e21">addNewDocument()</text>
<line x1="768" y1="401" x2="417" y2="401" stroke="#5f6368" stroke-width="1" stroke-dasharray="5 4" />
<polygon points="417,401 426,396 426,406" fill="#5f6368" />
<text x="588" y="395" text-anchor="middle" font-size="12" font-weight="normal" fill="#1c1e21"></text>
<line x1="408" y1="439" x2="69" y2="439" stroke="#5f6368" stroke-width="1" stroke-dasharray="5 4" />
<polygon points="69,439 78,434 78,444" fill="#5f6368" />
<text x="234" y="433" text-anchor="middle" font-size="12" font-weight="normal" fill="#1c1e21">void</text>
</svg>